<svg xmlns="http://www.w3.org/2000/svg" xmlns:xlink="http://www.w3.org/1999/xlink" width="744.09448" height="1052.3622" version="1.0" style="display:inline;enable-background:new" enable-background="new">
  <defs>
    <linearGradient id="d">
      <stop offset="0" style="stop-color:#e4e6e8"/>
      <stop style="stop-color:#4f7b8c;stop-opacity:0" offset="1"/>
    </linearGradient>
    <linearGradient id="c">
      <stop style="stop-color:#000;stop-opacity:0" offset="0"/>
      <stop offset=".19851486" style="stop-color:#000;stop-opacity:0"/>
      <stop style="stop-color:#000" offset="1"/>
    </linearGradient>
    <linearGradient id="b">
      <stop style="stop-color:#a6c0ce" offset="0"/>
      <stop offset="1" style="stop-color:#fff;stop-opacity:0"/>
    </linearGradient>
    <linearGradient id="a">
      <stop offset="0" style="stop-color:#469ff9"/>
      <stop style="stop-color:#c2cfdc;stop-opacity:.49803922" offset=".67284548"/>
      <stop style="stop-color:#47a0fa;stop-opacity:0" offset="1"/>
    </linearGradient>
    <linearGradient xlink:href="#d" id="i" x1="377.23792" y1="139.97688" x2="377.23792" y2="331.37125" gradientUnits="userSpaceOnUse"/>
    <radialGradient xlink:href="#a" id="f" cx="377.23792" cy="603.78839" fx="377.23792" fy="603.78839" r="329.17609" gradientTransform="matrix(0 -1.79968 .93734 0 -188.71787 1320.5)" gradientUnits="userSpaceOnUse"/>
    <radialGradient xlink:href="#b" id="g" cx="1760.7036" cy="513.24353" fx="1760.7036" fy="513.24353" r="336.14325" gradientTransform="matrix(.85177 0 0 .96139 -1122.4773 348.03689)" gradientUnits="userSpaceOnUse"/>
    <radialGradient xlink:href="#c" id="h" gradientUnits="userSpaceOnUse" gradientTransform="matrix(2.0137 0 0 2.2176 -382.40542 -635.95221)" cx="377.23792" cy="525.66876" fx="377.23792" fy="525.66876" r="335.63123"/>
    <filter id="e">
      <feGaussianBlur stdDeviation="16.087627"/>
    </filter>
  </defs>
  
  <path style="opacity:.58482139;fill:#040608;filter:url(#e)" d="M391.15625 63.90625c-7.45278 4.484862-13.56851 14.653254-24.875 24.09375C265.21191 193.2072 181.24959 316.79625 130.125 453.625a9.2071328 9.2071328 0 0 1-.03125.03125C91.554406 555.27532 67.677992 662.29241 54.40625 770.4375c-.005196.04234-.026057.08266-.03125.125-1.755062 25.31552-9.586676 47.70514-4.96875 66.96875.51613.24378 1.341553.3728 3.28125.5 3.376454.22142 8.489151-.49578 14.6875.1875 45.3034 3.70325 91.55375 10.13659 134.96875 28.3125.01042-.00002.02083-.00002.03125 0 71.55412 30.31716 129.73573 82.66678 181.6875 137.06255 3.41592 3.4947 11.7332 3.4693 14.375-.2188.37911-.5295.80816-1.0213 1.28125-1.4688 44.73468-42.31102 89.18772-88.79851 146.75-118.5937 38.37093-20.66552 80.31496-34.50189 123.625-40.21875v.03125c13.05644-3.36872 25.58223-2.51715 36.5625-2.59375 11.05942-.07715 20.09521-1.06955 27.8125-5.75.9909-.93239 1.38464-1.9041 1.4375-4.8125.0586-3.22434-.80781-7.8134-1.65625-12.5-.04952-.22767-.09122-.45697-.125-.6875-15.87524-142.61724-43.81765-285.2805-103.46875-415.375a8.13802835 8.13802835 0 0 1 0-.03125c-57.3613-126.26724-139.52289-241.55717-239.5-337.46875z"/>
  <path style="fill:#0278dc;fill-opacity:1" d="M378.1875 50.78125c-2.96236-.090658-5.82424 1.079077-7.875 3.21875-29.59003 30.877495-59.66374 65.52306-86.84375 98.5-.03156.04143-.06281.0831-.09375.125-66.97813 83.52933-117.88741 169.35549-154.78125 261.25-34.367848 85.60277-54.461762 159.65687-72.75 267.53125C51.838929 705.02896 47.791912 733.65373 45 756.6875c-1.395956 11.51688-2.479806 21.62104-3.09375 29.09375-.306972 3.73635-.485823 6.80156-.53125 9.28125-.022713 1.23984-.026299 2.27355.09375 3.5625.060025.64448.116328 1.33217.4375 2.5s.059061 3.53835 4.75 6.4375c2.53132 1.5645 2.872036 1.25545 3.5 1.40625.627964.1508 1.114391.26043 1.625.34375 1.021219.16665 2.105586.27412 3.34375.40625 2.476327.26426 5.542631.51019 8.78125.6875 25.680126 1.40591 63.54914 7.93128 88.65625 15.28125 16.95014 4.96204 28.10958 9.06713 44.65625 16.40625 3.82288 1.6956 7.32851 3.24619 9.9375 4.375 1.3045.5644 2.37544 1.00367 3.1875 1.34375.38203.15999.72066.28279 1.03125.40625.01951.00776.04301.02355.0625.03125.00505.00236.02582-.00252.03125 0 .01098.00434.0203.02693.03125.03125.11631.06044.23661.11198.4375.21875-.01192-.02749-.05431-.07836-.09375-.09375.05882.02179.08266.03628.15625.0625.13196.04702.27515.12393.59375.21875.12568.0374.22161.10822.375.1875-.07369-.01735-.35088-.01286-.40625-.03125.73325.39462 1.60371.88375 2.78125 1.53125 2.80093 1.54016 6.64897 3.67379 10.84375 6.03125 40.52196 22.77336 70.82614 46.25776 119.21875 92.625 6.37566 6.1088 12.31679 11.65041 16.8125 15.75 2.24786 2.04979 4.11468 3.73663 5.59375 5 .73953.63168 1.36465 1.14641 2.03125 1.65625.3333.25492.65593.51682 1.21875.875.28141.17909.62679.38732 1.25.6875s1.24332.89056 4.125 1.03125c3.45229.16841 4.16872-.59022 4.875-.90625.70628-.31603 1.069-.53075 1.375-.71875.612-.376.95595-.63916 1.3125-.90625.7131-.53419 1.35659-1.07749 2.15625-1.75 1.59932-1.34501 3.6419-3.16839 6.09375-5.375 4.9037-4.41321 11.39113-10.40884 18.375-17.03125 40.03124-37.95938 59.4088-54.00555 87.28125-72.5 60.86863-40.3887 115.10891-58.3158 198.375-65.34375l6.75-.5625c5.42647-.45316 9.59853-4.99215 9.59375-10.4375v-3.96875c.00002-8.27396-1.96892-25.36273-4.625-46.53125s-6.05382-45.26241-9.125-63.5625c-18.2666-108.8443-39.03419-185.50437-73.84375-272.1875-31.35858-78.08946-76.25267-156.97146-129.90625-228.375-.12049-.1598-.24554-.31612-.375-.46875-36.11506-42.75105-71.04899-87.621491-109.15625-129.21875-1.90683-2.089856-4.57856-3.318629-7.40625-3.40625z"/>
  <path style="opacity:.5;fill:url(#f)" d="m377.23791 641.59412 78.30582-509.40431-75.27504-84.359941-81.76425 90.849171 78.73347 502.91508L197.2725 290.52695l-60.06003 111.51789 240.02544 239.54928L99.878778 497.18819l-24.16206 95.79205 301.521192 48.61388-322.728406 51.26489-9.830432 117.60692L377.23791 641.59412 184.73574 833.57864l76.13118 39.68088 116.37099-231.6654-46.70831 289.2923 46.70831 42.71443 47.61717-42.05859-47.61717-289.94814 119.06633 232.31313 71.92438-40.643-190.99071-191.67013L703.03125 808.9375l-5.52028-116.44174-320.27306-50.90164 300.6202-43.39836-25.11302-98.34052-275.50718 141.73888 242.01741-237.71565-59.07281-122.79099-182.9446 360.50664z"/>
  <path d="M42.001947 807.89203C61.382244 679.31376 115.78309 424.1632 200.81173 273.69532c50.4492-89.27562 132.06019-132.20262 176.42618-132.20262 43.06907 0 138.86641 59.21847 181.76909 142.85311 77.65686 151.38456 112.1055 344.94641 155.28145 526.34478-206.33838 10.84535-209.66915 81.0321-337.05054 162.33054-72.28235-50.10296-162.56145-150.81396-335.235963-165.1291z" style="opacity:.70089285;fill:url(#g)"/>
  <path style="opacity:1;fill:url(#h)" d="M377.23791 49.968329c-16.16689 5.66019-23.42632 22.93617-35.99129 33.42733C258.97773 173.16121 187.3679 273.88754 138.96706 386.04199c-46.83823 105.9459-74.0977 219.45605-90.14018 333.88098-3.4497 25.4676-7.18762 51.0071-8.62066 76.6557 3.07735 17.2491 23.87483 12.0584 36.21337 14.1432 67.91553 6.2362 134.45722 29.7834 189.44355 70.4695 36.13024 25.9498 68.59989 56.6893 100.15541 87.8394 14.59618 10.4447 26.41704-6.2663 35.811-15.3404 44.01333-42.125 90.465-83.3159 146.37982-108.9463 47.76452-23.2468 100.73851-32.7934 153.33265-36.6084 16.01415-4.0116 8.97998-24.2255 8.22159-35.9056-16.2575-150.8914-51.16892-301.66941-120.70539-437.4251-33.57199-65.89152-73.87603-128.5342-122.13509-184.66584-27.528-33.07282-54.37507-66.769511-83.84301-98.166111l-2.76998-1.44283-3.07223-.56186z"/>
  <path style="opacity:1;fill:url(#i)" d="M44.997827 817.20366C77.816727 575.404 141.97182 433.93311 208.14904 312.7767c58.982-107.9835 125.04164-172.55131 169.40763-172.55131 43.06907 0 120.40398 82.54206 178.88839 178.87373 94.52885 155.7017 121.4569 253.82429 156.4988 492.62784l-667.946033 5.4767z"/>
  <path style="opacity:1;fill:#040608" d="M354.17823 967.2099c-35.38222-34.69682-57.45528-54.26954-81.70656-72.45119-45.84167-34.36839-95.50534-56.92922-148.29344-67.36559-20.49795-4.05251-51.77767-7.91462-73.08706-9.02406-10.00905-.52111-18.39596-1.14516-18.63758-1.38677-1.24784-1.24785 11.26591-96.25151 17.76251-134.85194 30.4477-180.90906 83.57352-321.46676 171.31496-453.25676 39.74788-59.70237 95.19675-127.10759 145.60372-177.000003l10.10313-10 20.27887 20.5C501.89476 167.88978 582.30219 289.45409 634.97853 421.38112c36.37904 91.11072 61.66524 191.95155 78.60936 313.49247 5.32686 38.20986 9.7533 75.95616 9.40409 80.19315l-.31375 3.80685-7 .23327c-54.98111 1.8322-91.01424 7.62163-129.51485 20.80911-57.05843 19.54402-103.78299 50.51021-165.98515 110.00483-21.51519 20.57868-42.06098 39.46577-42.86347 39.40302-.35009-.02738-10.76153-9.97864-23.13653-22.11392zm49.30341-25.7288c40.19052-38.11039 60.32311-54.83028 88.67035-73.63977 62.09949-41.2054 118.87022-59.93305 203.27624-67.05721l6.75-.56972v-3.94323c0-12.26504-7.51772-72.26699-13.58127-108.39758-18.18552-108.36115-38.69267-183.95468-73.2461-270-30.97906-77.1444-75.44684-155.31597-128.55977-226-36.29597-42.96521-71.16336-87.71614-108.8879-128.895633-29.33704 30.61348-59.27568 65.069383-86.33149 97.895633-66.40834 82.81873-116.71721 167.74909-153.21148 258.64835-34.11835 84.98134-53.96246 157.9413-72.17203 265.35165-7.9307 46.77975-16.10421 114.20569-14.00176 115.50507.61957.38291 6.15868.97169 12.30914 1.30841 26.83731 1.46924 64.85029 8.01812 91.0346 15.68344 17.26421 5.054 29.12597 9.40957 45.96086 16.87653 7.59704 3.3696 13.96849 6.12655 14.15877 6.12655.19029 0 7.248 3.87894 15.68381 8.61986 41.27213 23.19495 72.64316 47.55233 121.34462 94.21549 12.65 12.12056 23.58653 22.06602 24.30341 22.10102.71687.03499 12.64187-10.68799 26.5-23.82886zm-92.3365-47.30966c2.42451-6.90393 33.81837-52.28215 50.17539-71.9466 4.87173-5.85682 8.8577-11.33492 8.8577-12.17356 0-1.95004-32.91053-30.80077-50.16219-45.12282-7.32721-6.08293-24.26849-16.72987-23.78729-16.72987 2.64893 0 52.62908 33.35244 69.44948 47.029 5.5 4.47202 10.675 8.12784 11.5 8.12404.825-.00379 7.35-4.75278 14.5-10.55331 13.02287-10.56498 61.50994-47.44448 63.68655-47.42364.63715.0061-.41655 1.24335-2.34155 2.74945-18.73752 14.66001-68.845 59.42709-68.845 61.95334 0 .85305 3.07637 5.20615 6.83637 9.67356 16.07679 19.10149 44.95664 50.89168 52.37313 64.46256 4.08561 7.47594 2.52791 5.93908-8.10848-8-15.29908-20.04956-54.93657-58.84-58.23507-58.84-3.08277 0-40.99581 46.00323-57.16627 67.01-8.37787 10.88354-9.59767 12.25072-8.73277 9.78785zm212.08385-74.13224c-20.12601-26.59637-44.06648-55.37958-70.42075-84.66561-19.24107-21.38154-73.19238-75-75.46557-75-2.39068 0-39.57854 36.18195-62.80518 61.10635-29.93545 32.12358-63.11315 69.43903-85.07276 98.29715-16.20626 21.29738-16.85469 20.5382-2.31647-2.71212 31.78496-50.83221 80.08501-113.48108 121.39785-161.56645 5.84767-6.80629 10.6409-12.88129 10.65163-13.5.0243-1.40082-21.81635-22.70834-39.35227-38.39168-54.08663-48.37265-132.31827-102.12701-186.62233-127.83017-7.2725-3.44222-12.43645-6.99169-11.82088-7.19688 3.17371-1.05791 76.59156 34.30914 102.27597 48.81304 48.78235 27.54723 106.83009 67.66422 144.06041 99.56065 4.76352 4.08106 9.01133 7.42011 9.43959 7.42011.42826 0 4.67607-3.33905 9.43959-7.42011 37.32854-31.98057 95.15014-71.94181 144.04812-99.55348 26.20939-14.7999 89.97165-44.48688 95.4372-44.45092.95971.00631-23.91861 12.4372-33.07758 17.31353-51.91797 27.64169-105.8344 66.19151-158.51457 113.33664-17.5536 15.70927-39.37655 37.001-39.35227 38.39434.01073.61601 5.84372 7.92265 12.9622 16.23699 23.93886 27.96045 49.27259 60.37552 71.23204 91.14301 24.46247 34.27447 59.73246 85.76969 58.31901 87.17854-.17806.17748-9.7959-10.37184-14.44298-16.51293zm-381.1532-17.70812c-.11053-5.64316 19.21809-77.40139 29.73947-109.26704 4.14219-12.54525 7.27098-23.4878 6.95287-24.31678-1.25652-3.27442-36.82118-18.52017-62.5899-26.83083-18.82583-6.07151-40.22777-10.4934-39.69109-11.03008.8236-.8236 37.13741 5.54541 53.19109 9.45879 17.3313 4.22482 33.27353 8.98605 46.18101 13.79217 7.56364 2.81634 8.29144 2.92133 9.64426 1.39125.80478-.91023 6.46389-11.66967 12.57579-23.90987 12.78477-25.60383 38.16692-71.33896 43.20186-78.5901 4.17878-6.01812-1.32356 4.82462-11.23348 27.84-7.41833 17.22874-32.11096 74.63479-33.41354 79.82467-.49915 1.98878.42529 2.96935 6.73275 7.14153 19.21803 12.7121 67.17191 50.05525 77.26812 60.76469 4.83122 5.12467-3.69335-1.01816-16.87399-10.49161-22.04676-15.84589-70.45579-44.91449-73.06705-42.74733-3.26282 2.7079-24.78833 55.81389-35.5638 87.7401-6.85196 20.30142-12.99395 42.31548-13.05437 39.23044zm470.3984 2.88751c-.33379-.825-9.38141-30.57-13.17582-41.845-10.76654-31.99248-32.34205-85.27942-35.63587-88.01305-2.6225-2.17648-54.50141 30.10355-76.07541 45.7183-13.84059 10.01749-14.39352 10.06721-4.49037.4038 12.94244-12.62913 52.19849-43.50046 73.07225-57.20498l2.43081-1.59592-3.8315-10.40408c-8.44373-22.92815-21.80864-55.00498-27.85044-68.61739-3.51369-7.91649-17.42022-32.87089-17.42022-33.24664 0-1.20962 18.16991 25.86444 24.25931 36.64742 3.25672 5.76693 12.4463 24.61478 20.4213 40.29785 16.97791 33.38758 13.26031 30.77576 33.65025 23.64117 19.75906-6.91384 63.6948-17.91657 79.68975-19.96184 8.92164-1.14081-9.22525 3.60469-28.675 9.80955-28.65081 9.14018-61.90746 24.38811-63.26499 27.9258-.32367.84344 2.57667 11.11099 6.44519 22.81677 13.50376 40.86112 32.81787 110.46823 31.48511 113.99658-.26894.712-.65251.57541-1.03435-.36834zm-353.73278-287.245c17.6087-31.73538 60.90684-94.83692 104.30805-143.75345 2.27082-2.5594 4.12877-5.32396 4.12877-6.14348 0-2.43567-25.19748-25.9716-42.96833-40.13494-18.91285-15.07351-52.10902-34.14974-69.46167-45.75497-6.7375-4.50596-32.095-19.7374-32.095-19.98766 0-1.01339 35.60806 18.16917 49.04692 25.86876 23.43837 13.42866 69.91739 41.50229 92.64644 60.53498 6.41759 5.37392 12.19183 9.77076 12.83164 9.77076.63981 0 6.61824-4.57086 13.28541-10.15747 25.0937-21.02672 66.50412-53.03432 92.88959-67.3929 9.20365-5.00848 42.68-18.50219 42.68-17.74647 0 .25835-28.6425 14.9126-35.93 19.79064-15.75006 10.54261-51.12716 37.64461-66.66514 50.36205-13.92082 11.39384-36.25986 32.87087-36.25986 34.86069 0 .81211 1.85795 3.57061 4.12877 6.13001 36.46783 41.10207 77.11367 95.38259 92.37769 125.03772 7.76152 15.07919 16.28044 26.79587 15.40629 26.79587-.29755 0-3.7999-4.6125-7.78302-10.25-8.70704-12.3235-39.68114-59.65057-50.0422-71.90207-20.15935-23.83755-61.45377-66.52807-64.35242-66.52807-1.54026 0-36.74087 35.78156-51.15573 52-15.62569 17.58078-51.09417 68.90263-61.80657 84.1-4.36148 6.1875-8.16058 11.25-8.44245 11.25-.28187 0 1.1729-3.0375 3.23282-6.75z"/>
</svg>
